#!OML:ASF H:\Terrain\Patient Classification 1\Takeo\Monday\TakeoMonday.ASF
:FULLY-SPECIFIED
:DEGREES
188
root 18.2391 17.2885 -1.53057 -13.0758 -70.1872 8.96929
lowerback 7.01597 -2.07662 -0.088469
upperback 2.38587 -2.78429 2.87371
thorax -1.31885 -1.42964 3.23449
lowerneck -12.1068 9.11333 1.28499
upperneck -1.76479 11.8805 -3.10782
head 1.75146 5.77886 -0.568073
rclavicle 3.58806e-014 1.11319e-014
rhumerus 12.4116 -42.3343 -56.6124
rradius 48.5814
rwrist -20.604
rhand -50.2066 26.5418
rfingers 7.12502
rthumb -22.7874 -2.13231
lclavicle 3.58806e-014 1.11319e-014
lhumerus -11.6832 -0.683128 60.7471
lradius 87.9431
lwrist 23.8736
lhand -26.0158 14.526
lfingers 7.12502
lthumb 0.530476 44.5051
rfemur -1.85017 -6.13115 9.62409
rtibia 32.5421
rfoot -20.5265 -21.1954
rtoes -12.2691
lfemur -12.9009 14.7118 -15.0292
ltibia 37.2382
lfoot -13.6857 14.4151
ltoes -2.35722
189
root 18.2455 17.2895 -1.49236 -12.8741 -69.3571 8.7786
lowerback 6.86531 -2.06989 -0.190845
upperback 2.45869 -2.78607 2.75643
thorax -1.16126 -1.43154 3.16163
lowerneck -11.0842 9.36771 -2.25155
upperneck -3.15542 12.5548 0.962569
head 0.622853 6.25015 1.11538
rclavicle -8.50798e-014 -1.74931e-014
rhumerus 14.6069 -42.8219 -58.8377
rradius 47.1709
rwrist -19.8622
rhand -49.9087 27.6327
rfingers 7.12502
rthumb -22.5015 -1.07623
lclavicle -8.50798e-014 -1.74931e-014
lhumerus -11.0507 -0.89839 60.4527
lradius 87.86
lwrist 24.0004
lhand -25.5339 14.6372
lfingers 7.12502
lthumb 0.995918 44.6146
rfemur -1.48122 -6.22613 9.44349
rtibia 32.28
rfoot -20.8198 -21.5061
rtoes -10.3658
lfemur -13.0601 14.4284 -15.4011
ltibia 37.485
lfoot -13.7134 14.1261
ltoes -1.40482
190
root 18.2505 17.2851 -1.45486 -12.382 -68.6037 8.19562
lowerback 6.82958 -1.9921 -0.0934124
upperback 2.49855 -2.67746 2.65732
thorax -1.11584 -1.3764 2.99368
lowerneck -11.3593 9.3675 0.237444
upperneck -2.4752 12.3134 -1.93289
head 1.23855 6.04572 -0.0899234
rclavicle -5.4964e-014 -2.8625e-014
rhumerus 15.4516 -42.7572 -59.9461
rradius 46.9264
rwrist -19.8515
rhand -50.1565 27.326
rfingers 7.12502
rthumb -22.7393 -1.354
lclavicle -5.4964e-014 -2.8625e-014
lhumerus -10.2389 -1.31793 59.9975
lradius 87.6733
lwrist 24.0141
lhand -24.8854 14.4585
lfingers 7.12502
lthumb 1.62228 44.4321
rfemur -1.07156 -6.25818 9.45009
rtibia 32.1003
rfoot -21.0672 -21.9306
rtoes -9.88233
lfemur -13.0765 14.5057 -15.5735
ltibia 37.6008
lfoot -13.4621 13.8039
ltoes -4.75652
191
root 18.2513 17.2863 -1.42178 -11.2207 -67.773 6.93837
lowerback 6.78252 -1.85063 0.216749
upperback 2.47115 -2.46766 2.67485
thorax -1.1413 -1.26946 2.82093
lowerneck -11.4219 9.15865 0.575006
upperneck -2.28161 12.0117 -2.32816
head 1.36044 5.88372 -0.264294
rclavicle -6.7885e-014 -2.54444e-014
rhumerus 14.2056 -39.2369 -56.6913
rradius 45.6261
rwrist -23.9303
rhand -51.1859 27.6952
rfingers 7.12502
rthumb -23.7269 -0.860136
lclavicle -6.7885e-014 -2.54444e-014
lhumerus -9.36565 -1.90716 59.8059
lradius 87.4063
lwrist 23.9159
lhand -24.3246 13.9837
lfingers 7.12502
lthumb 2.16388 43.9525
rfemur -0.696198 -6.41737 9.77564
rtibia 31.9747
rfoot -21.6379 -22.3218
rtoes -8.4919
lfemur -13.2873 13.9884 -15.371
ltibia 37.6337
lfoot -13.3721 13.3894
ltoes -4.33292
192
root 18.2518 17.2958 -1.38355 -11.3049 -66.8387 7.1862
lowerback 6.51382 -1.7545 -0.138111
upperback 2.41951 -2.36129 2.57959
thorax -1.04019 -1.21537 2.9046
lowerneck -11.3447 8.93821 0.571997
upperneck -2.32546 11.7195 -2.26063
head 1.32519 5.74193 -0.262977
rclavicle 4.56211e-014 -1.59028e-015
rhumerus 14.1357 -37.4328 -55.8638
rradius 44.86
rwrist -25.7958
rhand -51.3265 27.2108
rfingers 7.12502
rthumb -23.8617 -1.32701
lclavicle 4.56211e-014 -1.59028e-015
lhumerus -8.6678 -2.32903 59.5925
lradius 87.1552
lwrist 23.8993
lhand -24.2101 13.5837
lfingers 7.12502
lthumb 2.27447 43.5513
rfemur -0.439501 -6.684 9.42913
rtibia 31.7741
rfoot -22.0092 -22.6009
rtoes -6.64901
lfemur -13.6552 13.0202 -15.7814
ltibia 37.5897
lfoot -13.711 12.9863
ltoes -0.59255
